<svg width="691" height="160" viewBox="0 0 691 160" fill="none" xmlns="http://www.w3.org/2000/svg">
<path d="M239.929 61.8267C239.588 58.3892 238.125 55.7187 235.54 53.8153C232.955 51.9119 229.446 50.9602 225.014 50.9602C222.003 50.9602 219.46 51.3864 217.386 52.2386C215.313 53.0625 213.722 54.2131 212.614 55.6903C211.534 57.1676 210.994 58.8438 210.994 60.7188C210.938 62.2812 211.264 63.6449 211.974 64.8097C212.713 65.9744 213.722 66.983 215 67.8352C216.278 68.6591 217.756 69.3835 219.432 70.0085C221.108 70.6051 222.898 71.1165 224.801 71.5426L232.642 73.4176C236.449 74.2699 239.943 75.4062 243.125 76.8267C246.307 78.2472 249.063 79.9943 251.392 82.0682C253.722 84.142 255.526 86.5852 256.804 89.3977C258.111 92.2102 258.778 95.4347 258.807 99.071C258.778 104.412 257.415 109.043 254.716 112.963C252.045 116.855 248.182 119.881 243.125 122.04C238.097 124.17 232.031 125.236 224.929 125.236C217.884 125.236 211.747 124.156 206.52 121.997C201.321 119.838 197.259 116.642 194.332 112.409C191.435 108.148 189.915 102.878 189.773 96.5994H207.628C207.827 99.5256 208.665 101.969 210.142 103.929C211.648 105.861 213.651 107.324 216.151 108.318C218.679 109.284 221.534 109.767 224.716 109.767C227.841 109.767 230.554 109.312 232.855 108.403C235.185 107.494 236.989 106.23 238.267 104.611C239.545 102.991 240.185 101.131 240.185 99.0284C240.185 97.0682 239.602 95.4205 238.438 94.0852C237.301 92.75 235.625 91.6136 233.409 90.6761C231.222 89.7386 228.537 88.8864 225.355 88.1193L215.852 85.733C208.494 83.9432 202.685 81.1449 198.423 77.3381C194.162 73.5312 192.045 68.4034 192.074 61.9545C192.045 56.6705 193.452 52.054 196.293 48.1051C199.162 44.1562 203.097 41.0739 208.097 38.858C213.097 36.642 218.778 35.5341 225.142 35.5341C231.619 35.5341 237.273 36.642 242.102 38.858C246.96 41.0739 250.739 44.1562 253.438 48.1051C256.136 52.054 257.528 56.6278 257.614 61.8267H239.929ZM289.542 125.236C285.366 125.236 281.644 124.511 278.377 123.062C275.11 121.585 272.525 119.412 270.621 116.543C268.746 113.645 267.809 110.037 267.809 105.719C267.809 102.082 268.477 99.0284 269.812 96.5568C271.147 94.0852 272.965 92.0966 275.266 90.5909C277.567 89.0852 280.181 87.9489 283.107 87.1818C286.062 86.4148 289.158 85.875 292.397 85.5625C296.204 85.1648 299.272 84.7955 301.602 84.4545C303.931 84.0852 305.621 83.5455 306.673 82.8352C307.724 82.125 308.249 81.0739 308.249 79.6818V79.4261C308.249 76.7273 307.397 74.6392 305.692 73.1619C304.016 71.6847 301.63 70.946 298.533 70.946C295.266 70.946 292.667 71.6705 290.735 73.1193C288.803 74.5398 287.525 76.3295 286.9 78.4886L270.11 77.125C270.962 73.1477 272.638 69.7102 275.138 66.8125C277.638 63.8864 280.863 61.642 284.812 60.0795C288.789 58.4886 293.391 57.6932 298.619 57.6932C302.255 57.6932 305.735 58.1193 309.059 58.9716C312.411 59.8239 315.38 61.1449 317.965 62.9347C320.579 64.7244 322.638 67.0256 324.144 69.8381C325.65 72.6222 326.403 75.9602 326.403 79.8523V124H309.187V114.923H308.675C307.624 116.969 306.218 118.773 304.457 120.335C302.695 121.869 300.579 123.077 298.107 123.957C295.636 124.81 292.781 125.236 289.542 125.236ZM294.741 112.707C297.411 112.707 299.769 112.182 301.815 111.131C303.86 110.051 305.465 108.602 306.63 106.784C307.795 104.966 308.377 102.906 308.377 100.605V93.6591C307.809 94.0284 307.028 94.3693 306.033 94.6818C305.067 94.9659 303.974 95.2358 302.752 95.4915C301.531 95.7187 300.309 95.9318 299.087 96.1307C297.866 96.3011 296.758 96.4574 295.763 96.5994C293.633 96.9119 291.772 97.4091 290.181 98.0909C288.59 98.7727 287.354 99.696 286.474 100.861C285.593 101.997 285.153 103.418 285.153 105.122C285.153 107.594 286.048 109.483 287.837 110.79C289.656 112.068 291.957 112.707 294.741 112.707ZM375.685 58.5455V72.1818H335.288V58.5455H375.685ZM344.535 124V53.8153C344.535 49.071 345.458 45.1364 347.305 42.0114C349.18 38.8864 351.737 36.5426 354.975 34.9801C358.214 33.4176 361.893 32.6364 366.012 32.6364C368.796 32.6364 371.339 32.8494 373.64 33.2756C375.969 33.7017 377.702 34.0852 378.839 34.4261L375.6 48.0625C374.89 47.8352 374.009 47.6222 372.958 47.4233C371.935 47.2244 370.884 47.125 369.805 47.125C367.134 47.125 365.273 47.75 364.222 49C363.171 50.2216 362.646 51.9403 362.646 54.1562V124H344.535ZM414.261 125.278C407.528 125.278 401.733 123.915 396.875 121.188C392.045 118.432 388.324 114.54 385.71 109.511C383.097 104.455 381.79 98.4744 381.79 91.571C381.79 84.8381 383.097 78.929 385.71 73.8438C388.324 68.7585 392.003 64.7955 396.747 61.9545C401.52 59.1136 407.116 57.6932 413.537 57.6932C417.855 57.6932 421.875 58.3892 425.597 59.7812C429.347 61.1449 432.614 63.2045 435.398 65.9602C438.21 68.7159 440.398 72.1818 441.96 76.358C443.523 80.5057 444.304 85.3636 444.304 90.9318V95.9176H389.034V84.6676H427.216C427.216 82.054 426.648 79.7386 425.511 77.7216C424.375 75.7045 422.798 74.1278 420.781 72.9915C418.793 71.8267 416.477 71.2443 413.835 71.2443C411.08 71.2443 408.636 71.8835 406.506 73.1619C404.403 74.4119 402.756 76.1023 401.562 78.233C400.369 80.3352 399.759 82.679 399.73 85.2642V95.9602C399.73 99.1989 400.327 101.997 401.52 104.355C402.741 106.713 404.46 108.531 406.676 109.81C408.892 111.088 411.52 111.727 414.56 111.727C416.577 111.727 418.423 111.443 420.099 110.875C421.776 110.307 423.21 109.455 424.403 108.318C425.597 107.182 426.506 105.79 427.131 104.142L443.92 105.25C443.068 109.284 441.321 112.807 438.679 115.818C436.065 118.801 432.685 121.131 428.537 122.807C424.418 124.455 419.659 125.278 414.261 125.278Z" fill="#8BCC58"/>
<path d="M503.835 61.8267C503.494 58.3892 502.031 55.7187 499.446 53.8153C496.861 51.9119 493.352 50.9602 488.92 50.9602C485.909 50.9602 483.366 51.3864 481.293 52.2386C479.219 53.0625 477.628 54.2131 476.52 55.6903C475.44 57.1676 474.901 58.8438 474.901 60.7188C474.844 62.2812 475.17 63.6449 475.881 64.8097C476.619 65.9744 477.628 66.983 478.906 67.8352C480.185 68.6591 481.662 69.3835 483.338 70.0085C485.014 70.6051 486.804 71.1165 488.707 71.5426L496.548 73.4176C500.355 74.2699 503.849 75.4062 507.031 76.8267C510.213 78.2472 512.969 79.9943 515.298 82.0682C517.628 84.142 519.432 86.5852 520.71 89.3977C522.017 92.2102 522.685 95.4347 522.713 99.071C522.685 104.412 521.321 109.043 518.622 112.963C515.952 116.855 512.088 119.881 507.031 122.04C502.003 124.17 495.938 125.236 488.835 125.236C481.79 125.236 475.653 124.156 470.426 121.997C465.227 119.838 461.165 116.642 458.239 112.409C455.341 108.148 453.821 102.878 453.679 96.5994H471.534C471.733 99.5256 472.571 101.969 474.048 103.929C475.554 105.861 477.557 107.324 480.057 108.318C482.585 109.284 485.44 109.767 488.622 109.767C491.747 109.767 494.46 109.312 496.761 108.403C499.091 107.494 500.895 106.23 502.173 104.611C503.452 102.991 504.091 101.131 504.091 99.0284C504.091 97.0682 503.509 95.4205 502.344 94.0852C501.207 92.75 499.531 91.6136 497.315 90.6761C495.128 89.7386 492.443 88.8864 489.261 88.1193L479.759 85.733C472.401 83.9432 466.591 81.1449 462.33 77.3381C458.068 73.5312 455.952 68.4034 455.98 61.9545C455.952 56.6705 457.358 52.054 460.199 48.1051C463.068 44.1562 467.003 41.0739 472.003 38.858C477.003 36.642 482.685 35.5341 489.048 35.5341C495.526 35.5341 501.179 36.642 506.009 38.858C510.866 41.0739 514.645 44.1562 517.344 48.1051C520.043 52.054 521.435 56.6278 521.52 61.8267H503.835ZM576.758 96.1307V58.5455H594.911V124H577.482V112.111H576.8C575.323 115.946 572.866 119.028 569.428 121.358C566.019 123.687 561.857 124.852 556.942 124.852C552.567 124.852 548.718 123.858 545.394 121.869C542.07 119.881 539.471 117.054 537.596 113.389C535.749 109.724 534.812 105.335 534.783 100.222V58.5455H552.937V96.983C552.965 100.847 554.002 103.901 556.048 106.145C558.093 108.389 560.835 109.511 564.272 109.511C566.46 109.511 568.505 109.014 570.408 108.02C572.312 106.997 573.846 105.491 575.011 103.503C576.204 101.514 576.786 99.0568 576.758 96.1307ZM609.773 124V36.7273H627.926V69.5398H628.48C629.276 67.7784 630.426 65.9886 631.932 64.1705C633.466 62.3239 635.455 60.7898 637.898 59.5682C640.369 58.3182 643.438 57.6932 647.102 57.6932C651.875 57.6932 656.278 58.9432 660.312 61.4432C664.347 63.9148 667.571 67.6506 669.986 72.6506C672.401 77.6222 673.608 83.858 673.608 91.358C673.608 98.6591 672.429 104.824 670.071 109.852C667.741 114.852 664.56 118.645 660.526 121.23C656.52 123.787 652.031 125.065 647.06 125.065C643.537 125.065 640.54 124.483 638.068 123.318C635.625 122.153 633.622 120.69 632.06 118.929C630.497 117.139 629.304 115.335 628.48 113.517H627.67V124H609.773ZM627.543 91.2727C627.543 95.1648 628.082 98.5597 629.162 101.457C630.241 104.355 631.804 106.614 633.849 108.233C635.895 109.824 638.381 110.619 641.307 110.619C644.261 110.619 646.761 109.81 648.807 108.19C650.852 106.543 652.401 104.27 653.452 101.372C654.531 98.446 655.071 95.0795 655.071 91.2727C655.071 87.4943 654.545 84.1705 653.494 81.3011C652.443 78.4318 650.895 76.1875 648.849 74.5682C646.804 72.9489 644.29 72.1392 641.307 72.1392C638.352 72.1392 635.852 72.9205 633.807 74.483C631.79 76.0455 630.241 78.2614 629.162 81.1307C628.082 84 627.543 87.3807 627.543 91.2727Z" fill="#FFF8F8"/>
<path d="M123.409 0H43.4092C21.3178 0 3.40918 17.9086 3.40918 40.0001V120C3.40918 142.092 21.3178 160 43.4092 160H123.409C145.501 160 163.409 142.092 163.409 120V40.0001C163.409 17.9086 145.501 0 123.409 0Z" fill="white"/>
<g filter="url(#filter0_d_5764_1440)">
<rect x="12.4844" y="90.4512" width="47.4728" height="30.1819" transform="rotate(-37.6696 12.4844 90.4512)" fill="#B6E7A4"/>
<path d="M126.089 39.9249L114.774 49.4503L69.4206 86.0156L59.2583 72.8263L50.2763 60.7025L27.2731 79.2482L36.2551 91.372L54.9675 116.63L63.5176 128.698L75.2639 119.228L132.364 73.1926L144.11 63.7224L126.089 39.9249Z" fill="white"/>
</g>
<path d="M123.405 0H43.4053C21.3139 0 3.40527 17.9086 3.40527 40.0001V120C3.40527 142.092 21.3139 160 43.4053 160H123.405C145.497 160 163.405 142.092 163.405 120V40.0001C163.405 17.9086 145.497 0 123.405 0Z" fill="white"/>
<g filter="url(#filter1_d_5764_1440)">
<rect x="4.35449" y="80.0176" width="57.0217" height="30.1819" transform="rotate(-38.2037 4.35449 80.0176)" fill="#645D5D"/>
<path d="M143.197 47.6041L131.883 57.1295L86.529 93.6948L76.3667 80.5055L67.3847 68.3817L44.3815 86.9274L53.3635 99.0512L72.0759 124.309L80.626 136.377L92.3723 126.907L149.472 80.8718L161.219 71.4016L143.197 47.6041Z" fill="white"/>
</g>
<path d="M123.408 0H43.4082C21.3168 0 3.4082 17.9086 3.4082 40.0001V120C3.4082 142.092 21.3168 160 43.4082 160H123.408C145.5 160 163.408 142.092 163.408 120V40.0001C163.408 17.9086 145.5 0 123.408 0Z" fill="white"/>
<g filter="url(#filter2_d_5764_1440)">
<rect x="12.4834" y="90.4512" width="47.4728" height="30.1819" transform="rotate(-37.6696 12.4834 90.4512)" fill="#B6E7A4"/>
<path d="M126.088 39.9249L114.773 49.4503L69.4196 86.0156L59.2573 72.8263L50.2754 60.7025L27.2722 79.2482L36.2541 91.372L54.9665 116.63L63.5166 128.698L75.2629 119.228L132.363 73.1926L144.109 63.7224L126.088 39.9249Z" fill="white"/>
</g>
<path d="M123.405 0H43.4053C21.3139 0 3.40527 17.9086 3.40527 40.0001V120C3.40527 142.092 21.3139 160 43.4053 160H123.405C145.497 160 163.405 142.092 163.405 120V40.0001C163.405 17.9086 145.497 0 123.405 0Z" fill="white"/>
<path d="M112.075 73.5C120.838 73.5 127.886 66.38 127.886 57.6071C127.886 48.8343 120.838 41.7143 112.075 41.7143C103.312 41.7143 96.2 48.8343 96.2 57.6071C96.2 66.38 103.312 73.5 112.075 73.5ZM64.45 67.1429C74.9593 67.1429 83.4365 58.5925 83.4365 48.0714C83.4365 37.5504 74.9593 29 64.45 29C53.9408 29 45.4 37.5504 45.4 48.0714C45.4 58.5925 53.9408 67.1429 64.45 67.1429ZM112.075 86.2143C100.423 86.2143 77.15 92.0629 77.15 103.696V118H147V103.696C147 92.0629 123.727 86.2143 112.075 86.2143ZM64.45 79.8571C49.6228 79.8571 20 87.295 20 102.107V118H64.45V103.696C64.45 98.2929 66.5772 88.8525 79.4995 81.6371C73.975 80.4611 68.6093 79.8571 64.45 79.8571Z" fill="#645D5D"/>
<defs>
<filter id="filter0_d_5764_1440" x="8.48438" y="39.9248" width="139.626" height="96.7734" filterUnits="userSpaceOnUse" color-interpolation-filters="sRGB">
<feFlood flood-opacity="0" result="BackgroundImageFix"/>
<feColorMatrix in="SourceAlpha" type="matrix" values="0 0 0 0 0 0 0 0 0 0 0 0 0 0 0 0 0 0 127 0" result="hardAlpha"/>
<feOffset dy="4"/>
<feGaussianBlur stdDeviation="2"/>
<feComposite in2="hardAlpha" operator="out"/>
<feColorMatrix type="matrix" values="0 0 0 0 0 0 0 0 0 0 0 0 0 0 0 0 0 0 0.25 0"/>
<feBlend mode="normal" in2="BackgroundImageFix" result="effect1_dropShadow_5764_1440"/>
<feBlend mode="normal" in="SourceGraphic" in2="effect1_dropShadow_5764_1440" result="shape"/>
</filter>
<filter id="filter1_d_5764_1440" x="0.354492" y="44.752" width="164.864" height="99.6255" filterUnits="userSpaceOnUse" color-interpolation-filters="sRGB">
<feFlood flood-opacity="0" result="BackgroundImageFix"/>
<feColorMatrix in="SourceAlpha" type="matrix" values="0 0 0 0 0 0 0 0 0 0 0 0 0 0 0 0 0 0 127 0" result="hardAlpha"/>
<feOffset dy="4"/>
<feGaussianBlur stdDeviation="2"/>
<feComposite in2="hardAlpha" operator="out"/>
<feColorMatrix type="matrix" values="0 0 0 0 0 0 0 0 0 0 0 0 0 0 0 0 0 0 0.25 0"/>
<feBlend mode="normal" in2="BackgroundImageFix" result="effect1_dropShadow_5764_1440"/>
<feBlend mode="normal" in="SourceGraphic" in2="effect1_dropShadow_5764_1440" result="shape"/>
</filter>
<filter id="filter2_d_5764_1440" x="8.4834" y="39.9248" width="139.626" height="96.7734" filterUnits="userSpaceOnUse" color-interpolation-filters="sRGB">
<feFlood flood-opacity="0" result="BackgroundImageFix"/>
<feColorMatrix in="SourceAlpha" type="matrix" values="0 0 0 0 0 0 0 0 0 0 0 0 0 0 0 0 0 0 127 0" result="hardAlpha"/>
<feOffset dy="4"/>
<feGaussianBlur stdDeviation="2"/>
<feComposite in2="hardAlpha" operator="out"/>
<feColorMatrix type="matrix" values="0 0 0 0 0 0 0 0 0 0 0 0 0 0 0 0 0 0 0.25 0"/>
<feBlend mode="normal" in2="BackgroundImageFix" result="effect1_dropShadow_5764_1440"/>
<feBlend mode="normal" in="SourceGraphic" in2="effect1_dropShadow_5764_1440" result="shape"/>
</filter>
</defs>
</svg>
